#!OML:ASF E:\id_vita\Project 1\Capture day 1\Session 1\Male1.ASF
:FULLY-SPECIFIED
:DEGREES
322
root 36.6138 16.1961 -1.52162 934.858 83.8974 934.693
lowerback -3.495 -1.36499 0.0711896
upperback 0.276234 -1.84162 1.02746
thorax 2.27369 -0.921982 0.91472
lowerneck -8.74131 1.02391 5.45495
upperneck 9.07476 0.572721 1.29528
head 4.62578 0.570567 -0.498803
rclavicle 1.16227e-014 -6.75868e-015
rhumerus -29.6252 -11.636 -82.3364
rradius 26.302
rwrist 5.52927
rhand -20.8941 35.3219
rfingers 7.12502
rthumb 5.47661 5.41266
lclavicle 1.16227e-014 -6.75868e-015
lhumerus -28.1214 49.6264 70.1784
lradius 9.39653
lwrist -40.9347
lhand -14.7235 38.2888
lfingers 7.12502
lthumb 11.4314 67.9571
rfemur -7.47267 3.25438 27.3483
rtibia 27.4802
rfoot -13.2564 -9.92645
rtoes -7.23861
lfemur -20.2473 2.95226 -15.6096
ltibia 68.8785
lfoot -16.366 -5.56344
ltoes 10.0587
323
root 36.7563 16.1793 -1.53532 935.366 83.9395 935.197
lowerback -3.38285 -1.28521 0.257812
upperback 0.37338 -1.74218 0.957187
thorax 2.30112 -0.870052 0.744927
lowerneck -8.79627 0.989724 5.60958
upperneck 8.90575 0.543294 0.89434
head 4.57845 0.533924 -0.666114
rclavicle -2.03024e-014 1.98785e-015
rhumerus -28.8277 -10.0176 -83.2129
rradius 28.0328
rwrist 4.20608
rhand -20.7883 35.5344
rfingers 7.12502
rthumb 5.57871 5.62787
lclavicle -2.03024e-014 1.98785e-015
lhumerus -40.8384 62.0767 54.6997
lradius 8.04375
lwrist -54.3138
lhand -14.5527 38.8209
lfingers 7.12502
lthumb 11.5962 68.48
rfemur -6.99994 2.87032 27.333
rtibia 27.7786
rfoot -13.9912 -9.81705
rtoes -7.22452
lfemur -21.8005 2.97925 -15.8427
ltibia 68.3266
lfoot -17.945 -5.43089
ltoes 10.1941
324
root 36.9073 16.1621 -1.54295 938.906 83.8125 938.882
lowerback -3.121 -1.28408 0.645973
upperback 0.450317 -1.7546 1.00004
thorax 2.223 -0.871506 0.57627
lowerneck -9.01538 1.13223 5.54146
upperneck 9.45234 0.705135 1.08109
head 4.32967 0.629589 -0.518432
rclavicle 9.9237e-015 0
rhumerus -28.0568 -8.39678 -84.1036
rradius 29.5803
rwrist 3.08426
rhand -20.7104 35.7612
rfingers 7.12502
rthumb 5.65399 5.85661
lclavicle 9.9237e-015 0
lhumerus -70.7057 70.6938 21.9455
lradius 7.25167
lwrist -67.5759
lhand -14.4454 39.5683
lfingers 7.12502
lthumb 11.6996 69.2217
rfemur -6.28747 2.89259 27.8434
rtibia 27.9302
rfoot -14.3624 -10.1636
rtoes -8.61942
lfemur -23.1395 3.12684 -15.5309
ltibia 67.5005
lfoot -19.1987 -5.64818
ltoes 10.427
325
root 37.0673 16.1583 -1.54774 938.822 83.9722 938.693
lowerback -3.1744 -1.14697 0.559557
upperback 0.288824 -1.56525 0.891744
thorax 2.08517 -0.777881 0.523878
lowerneck -8.55192 1.06076 5.2935
upperneck 9.07148 0.649832 1.36795
head 4.58521 0.605969 -0.440043
rclavicle 6.32694e-015 -4.96962e-015
rhumerus -27.7664 -7.11892 -84.6188
rradius 31.005
rwrist 2.00879
rhand -20.8716 36.2315
rfingers 7.12502
rthumb 5.4983 6.32279
lclavicle 6.32694e-015 -4.96962e-015
lhumerus -112.626 69.5307 -22.9337
lradius 6.87721
lwrist -80.7461
lhand -14.7726 39.8791
lfingers 7.12502
lthumb 11.3841 69.5501
rfemur -5.73869 2.99125 27.8164
rtibia 27.8962
rfoot -14.6068 -10.3979
rtoes -9.41753
lfemur -24.5665 3.18692 -15.7914
ltibia 66.3444
lfoot -20.075 -6.13688
ltoes 14.4833
326
root 37.2225 16.163 -1.56509 937.929 84.0922 937.671
lowerback -3.24561 -1.05654 0.648889
upperback 0.342785 -1.44677 0.704538
thorax 2.17276 -0.716928 0.285689
lowerneck -8.73859 1.04267 5.0295
upperneck 9.05343 0.617527 1.66157
head 4.61183 0.596957 -0.294259
rclavicle -2.30497e-014 1.19271e-014
rhumerus -27.038 -5.8681 -85.2038
rradius 32.4997
rwrist 0.901027
rhand -20.9184 36.2911
rfingers 7.12502
rthumb 5.4531 6.38129
lclavicle -2.30497e-014 1.19271e-014
lhumerus -138.83 60.6369 -52.3742
lradius 7.22792
lwrist -94.0363
lhand -14.9395 40.1
lfingers 7.12502
lthumb 11.2231 69.7798
rfemur -5.18475 2.48389 27.5564
rtibia 27.7403
rfoot -15.1883 -10.0252
rtoes -9.00502
lfemur -25.9468 3.06216 -16.2313
ltibia 64.9258
lfoot -20.6874 -6.37164
ltoes 12.3697
327
root 37.3754 16.1614 -1.58442 940.952 84.0545 940.708
lowerback -3.18403 -0.959671 1.17836
upperback 0.254299 -1.33384 0.60275
thorax 2.03278 -0.654508 -0.107265
lowerneck -7.89538 0.995201 5.40286
upperneck 8.60614 0.602813 1.40608
head 4.28142 0.574554 -0.451836
rclavicle -7.24322e-015 -9.54166e-015
rhumerus -26.6854 -4.56961 -85.8085
rradius 33.9501
rwrist -0.272768
rhand -20.969 36.1503
rfingers 7.12502
rthumb 5.40428 6.23918
lclavicle -7.24322e-015 -9.54166e-015
lhumerus -150.124 48.1655 -67.3749
lradius 8.24816
lwrist -107.528
lhand -14.7912 40.1175
lfingers 7.12502
lthumb 11.3661 69.7894
rfemur -4.39812 2.20155 27.7802
rtibia 27.398
rfoot -15.446 -9.76608
rtoes -8.8983
lfemur -27.1735 3.11991 -16.1537
ltibia 63.3464
lfoot -21.1122 -6.67815
ltoes 11.0151
328
root 37.5291 16.1575 -1.59077 944.035 84.1271 943.581
lowerback -3.43953 -0.845544 1.32225
upperback 0.265073 -1.1916 0.589666
thorax 2.18547 -0.580774 -0.198777
lowerneck -8.00998 0.973441 5.6198
upperneck 8.66923 0.562314 1.14199
head 4.3305 0.550138 -0.582422
rclavicle 6.26172e-015 -6.75868e-015
rhumerus -26.0314 -3.5585 -86.2368
rradius 35.2616
rwrist -1.10801
rhand -21.111 36.3969
rfingers 7.12502
rthumb 5.2672 6.48237
lclavicle 6.26172e-015 -6.75868e-015
lhumerus -155.57 34.7158 -76.8311
lradius 9.47793
lwrist -121.058
lhand -15.1414 40.2226
lfingers 7.12502
lthumb 11.0284 69.9129
rfemur -3.78081 2.56883 28.0744
rtibia 26.949
rfoot -15.2491 -9.98525
rtoes -9.31608
lfemur -28.5334 3.30498 -16.0721
ltibia 61.4963
lfoot -21.9093 -6.8166
ltoes 9.11701
329
root 37.6849 16.1536 -1.60814 951.707 83.5366 951.377
lowerback -3.27972 -0.739435 2.44691
upperback 0.359715 -1.095 0.807549
thorax 2.17803 -0.5186 -0.59815
lowerneck -8.3648 1.015 5.77623
upperneck 8.82024 0.591673 0.89903
head 4.46199 0.561696 -0.691127
rclavicle 6.51952e-015 4.37326e-015
rhumerus -25.4235 -2.52308 -86.5213
rradius 36.7508
rwrist -1.86104
rhand -21.1295 36.5297
rfingers 7.12502
rthumb 5.24931 6.61467
lclavicle 6.51952e-015 4.37326e-015
lhumerus -158.11 20.825 -83.9127
lradius 10.6795
lwrist -134.693
lhand -16.1674 40.8744
lfingers 7.12502
lthumb 10.0386 70.6149
rfemur -2.7423 2.65743 29.1949
rtibia 26.2885
rfoot -15.3274 -9.7632
rtoes -8.03165
lfemur -29.4494 3.45841 -15.0701
ltibia 59.4944
lfoot -22.7748 -7.01756
ltoes 7.77485
330
root 37.8499 16.1673 -1.62798 951.607 83.9041 951.034
lowerback -3.52878 -0.606847 2.30596
upperback 0.356679 -0.91823 0.651039
thorax 2.31925 -0.430378 -0.674253
lowerneck -8.29459 1.02718 5.65492
upperneck 8.61307 0.621407 1.00485
head 4.37093 0.571712 -0.631525
rclavicle 6.20736e-015 -9.14409e-015
rhumerus -24.7705 -1.33731 -86.7178
rradius 38.056
rwrist -2.89493
rhand -21.2047 36.566
rfingers 7.12502
rthumb 5.17669 6.64925
lclavicle 6.20736e-015 -9.14409e-015
lhumerus -158.307 14.9687 -86.869
lradius 11.8734
lwrist -140.035
lhand -16.61 41.3373
lfingers 7.12502
lthumb 9.61168 71.0981
rfemur -2.01389 2.36781 28.6945
rtibia 25.5658
rfoot -15.6048 -9.03888
rtoes -7.15731
lfemur -30.391 3.33484 -15.6225
ltibia 57.1298
lfoot -23.372 -6.93143
ltoes 6.87459
331
root 38.016 16.1731 -1.64283 952.774 84.045 952.168
lowerback -3.66706 -0.480538 2.3526
upperback 0.450791 -0.756629 0.563808
thorax 2.4966 -0.346377 -0.783268
lowerneck -8.03064 1.02027 5.23943
upperneck 8.24399 0.639508 1.54833
head 4.17625 0.584525 -0.373123
rclavicle 2.53548e-015 0
rhumerus -24.0211 -0.225205 -86.9095
rradius 39.1098
rwrist -3.88534
rhand -21.3607 36.8583
rfingers 7.12502
rthumb 5.02606 6.93793
lclavicle 2.53548e-015 0
lhumerus -157.97 11.3603 -88.8349
lradius 12.8228
lwrist -143.31
lhand -16.9713 41.8431
lfingers 7.12502
lthumb 9.26305 71.6196
rfemur -0.946042 2.34368 28.6292
rtibia 24.675
rfoot -15.4627 -8.97808
rtoes -9.23027
lfemur -31.0879 3.29073 -15.7652
ltibia 54.6082
lfoot -23.8887 -6.8661
ltoes 5.8543
